<svg xmlns="http://www.w3.org/2000/svg" width="179" height="32"><g fill="#88268E" fill-rule="evenodd"><path d="M22.0934769 1.37261538 15.2079385 21.3750769h-.1686154L8.11132308 1.37261538H-.00006154L11.3217846 29.5830769h7.2233846L30.0774769 1.37261538zM55.6770462 18.8848c-.4227693 1.0763077-1.0135385 1.9993846-1.7741539 2.7692308-.7606154.7704615-1.6621538 1.3747692-2.7033846 1.812923-1.0424615.4387693-2.1969231.6578462-3.464.6578462-1.2676923 0-2.4227692-.2190769-3.4646154-.6578462-1.0418461-.4381538-1.936-1.0424615-2.6824615-1.812923-.7458462-.7698462-1.3304616-1.6929231-1.7526154-2.7692308-.4227692-1.0763077-.6332308-2.2510769-.6332308-3.5261538 0-1.2215385.2030769-2.3643077.6116923-3.427077.408-1.0621538.9926154-1.97230766 1.7532308-2.72923074.7606154-.75692308 1.6615385-1.35507692 2.7033846-1.79323077 1.0418462-.43815384 2.1969231-.65723077 3.4646154-.65723077 1.2670769 0 2.4289231.21907693 3.4849231.65723077 1.056.43815385 1.956923 1.03630769 2.7033846 1.79323077.7458461.75692308 1.3304615 1.66707694 1.7532308 2.72923074.4227692 1.0627693.6338461 2.2055385.6338461 3.427077 0 1.2750769-.2110769 2.4498461-.6338461 3.5261538m3.7384615-14.28492308C57.9650462 3.3248 56.2407385 2.34264615 54.2407385 1.65156923c-2-.69046154-4.168-1.0363077-6.5052308-1.0363077-2.3378462 0-4.4990769.34584616-6.4843077 1.0363077-1.9858462.69107692-3.704 1.67323077-5.1544615 2.94830769-1.4504616 1.27507693-2.584 2.82338462-3.4 4.64246154-.8172308 1.81969234-1.2252308 3.85846154-1.2252308 6.11630774 0 2.2313846.408 4.2701538 1.2252308 6.1156923.816 1.8467692 1.9495384 3.4270769 3.4 4.7421538 1.4504615 1.3150769 3.1686153 2.3310769 5.1544615 3.0486154 1.9852308.7169231 4.1464615 1.0756923 6.4843077 1.0756923 2.3372308 0 4.5052308-.3587692 6.5052308-1.0756923 2-.7175385 3.7243077-1.7335385 5.1747692-3.0486154 1.4504615-1.3150769 2.5833846-2.8953846 3.4012308-4.7421538.816-1.8455385 1.2246153-3.8843077 1.2246153-6.1156923 0-2.2578462-.4086153-4.2966154-1.2246153-6.11630774-.8178462-1.81907692-1.9507693-3.36738461-3.4012308-4.64246154M77.3480615 6.85144615c.3938462-.22523077.8375385-.37846153 1.3304616-.45846153.4923077-.08.9778461-.11938462 1.4578461-.11938462.9292308 0 1.8929231.21907692 2.8929231.65723077.9993846.43876923 1.8098462 1.03015385 2.4295385 1.77353846L90.0631385 4.1216c-1.3236923-1.14153846-2.8658462-2.00492308-4.6258462-2.59015385-1.76-.58338461-3.4849231-.87630769-5.1747692-.87630769-1.408 0-2.8024616.16615385-4.1821539.49784616-1.3796923.33292307-2.6184615.85723076-3.716923 1.57415384-1.0984616.71753846-1.9858462 1.63384616-2.6621539 2.74953846-.6750769 1.11569231-1.0135385 2.45723077-1.0135385 4.02461539 0 1.27507689.2178462 2.35753849.6547693 3.24738459.4363077.8898462 1.0141538 1.6473846 1.7323077 2.2707693.7181538.6246153 1.5347692 1.136 2.4498461 1.5347692.9150769.3981538 1.8510769.7433846 2.8092308 1.0356923.9852308.2923077 1.8652308.5649231 2.6406154.8166154.7741538.2529231 1.4215384.5316923 1.9427692.8369231.5206154.3058461.9224615.6443076 1.2043077 1.016.2806154.3723076.4221538.8233846.4221538 1.3550769 0 .5575384-.1126153 1.0356923-.3378461 1.4338461-.2258462.3987693-.528.7175385-.9083077.9569231-.3803077.2387692-.8233846.4116923-1.3310769.5175385-.5064616.1064615-1.0283077.16-1.5624616.16-1.1827692 0-2.372923-.2855385-3.5698461-.8572308-1.1975385-.5704615-2.1618462-1.2812308-2.8935385-2.1316923L67.2096 26.2360615c1.3230769 1.3021539 2.9846154 2.3052308 4.9846154 3.0086154 1.9993846.7033846 4.0689231 1.056 6.2098461 1.056 1.464 0 2.8861539-.1864615 4.2664616-.5581538 1.3796923-.3716923 2.6049231-.9421539 3.6750769-1.7132308 1.0701538-.7698461 1.9224615-1.7458461 2.5556923-2.9286154.6338462-1.1815384.9507692-2.5827692.9507692-4.2036923 0-1.4073846-.296-2.5833846-.8873846-3.5261538-.5913846-.9427693-1.3372307-1.7335385-2.2387692-2.371077-.9015385-.6375384-1.9009231-1.1483076-2.9993846-1.5341538-1.0978462-.3846154-2.1544616-.7372308-3.168-1.056-.704-.2116923-1.3384616-.4178462-1.9009231-.6172308-.5643077-.1993846-1.0498462-.4184615-1.4578462-.6578461-.408-.2387693-.7181538-.5175385-.9286153-.8363077-.2116923-.31876925-.3175385-.71753848-.3175385-1.19569232 0-.55815385.1335385-1.016.4012308-1.37476923.2676923-.35815385.5981538-.65046154.9932307-.8763077M92.0484308 7.19009231h8.4486152V29.5833231h7.223385V7.19009231h8.449231V1.37224615H92.0484308zM163.233538 16.5771077c-.970461.8529231-1.728615 1.8886154-2.275076 3.1058461-.546462 1.2172308-.819693 2.5815385-.819693 4.0916924 0 .0775384.009231.1501538.011077.2270769-.686769-.1058462-1.339077-.2781539-1.948308-.5347693-1.041846-.4381538-1.936615-1.0424615-2.682461-1.812923-.746462-.7698462-1.331077-1.6929231-1.753231-2.7692308-.422769-1.0763077-.633846-2.2510769-.633846-3.5261538 0-1.2215385.203692-2.3643077.612923-3.427077.407385-1.0621538.992615-1.97230766 1.753231-2.72923074.76-.75692308 1.661538-1.35507692 2.703384-1.79323077 1.041847-.43815384 2.196924-.65723077 3.464616-.65723077 1.266461 0 2.428308.21907693 3.484923.65723077 1.056.43815385 1.956923 1.03630769 2.703385 1.79323077.74523.75692308 1.330461 1.66707694 1.752615 2.72923074.254769.6412308.423385 1.3144616.524923 2.0135385-1.225846.072-2.378462.2867692-3.450462.6596923-1.328615.4621538-2.477538 1.1193846-3.448 1.9723077Zm15.536616 9.016-5.148923-4.856 4.288615-4.0449231c.033846-.4387692.062154-.8793846.062154-1.3335384 0-2.2578462-.408615-4.2966154-1.225846-6.11630774-.817231-1.81907692-1.949539-3.36738461-3.400616-4.64246154-1.450461-1.27507692-3.174769-2.25723077-5.174769-2.94830769-2-.69046154-4.168-1.0363077-6.504615-1.0363077-2.337846 0-4.499692.34584616-6.484923 1.0363077-1.985846.69107692-3.704 1.67323077-5.153846 2.94830769-1.451077 1.27507693-2.584 2.82338462-3.400616 4.64246154-.817231 1.81969234-1.225231 3.85846154-1.225231 6.11630774 0 2.2313846.408 4.2701538 1.225231 6.1156923.816616 1.8467692 1.949539 3.4270769 3.400616 4.7421538 1.449846 1.3150769 3.168 2.3310769 5.153846 3.0486154 1.985231.7169231 4.147077 1.0756923 6.484923 1.0756923.633846 0 1.253538-.032 1.863384-.0843077l4.102154-3.8695385L172.78 31.2435692l5.990154-5.6504615ZM127.2792 17.9084923h12.419692v-5.4590769H127.2792V7.11033846h13.137846V1.37249231h-20.108308V29.5835692h20.868308v-5.8172307H127.2792z"/></g></svg>